<?xml version="1.0" encoding="UTF-8"?>
<!DOCTYPE svg PUBLIC "-//W3C//DTD SVG 1.1//EN" "http://www.w3.org/Graphics/SVG/1.1/DTD/svg11.dtd">
<svg xmlns="http://www.w3.org/2000/svg" version="1.1" width="18px" height="17px" style="shape-rendering:geometricPrecision; text-rendering:geometricPrecision; image-rendering:optimizeQuality; fill-rule:evenodd; clip-rule:evenodd" xmlns:xlink="http://www.w3.org/1999/xlink">
<g><path style="opacity:0.699" fill="#000000" d="M 1.5,-0.5 C 6.16667,-0.5 10.8333,-0.5 15.5,-0.5C 15.8333,0.5 16.5,1.16667 17.5,1.5C 17.5,3.83333 17.5,6.16667 17.5,8.5C 14.4275,10.5691 12.0941,13.2358 10.5,16.5C 9.16667,16.5 7.83333,16.5 6.5,16.5C 4.88302,13.2157 2.54969,10.5491 -0.5,8.5C -0.5,6.16667 -0.5,3.83333 -0.5,1.5C 0.5,1.16667 1.16667,0.5 1.5,-0.5 Z M 2.5,2.5 C 6.52132,3.62506 10.5213,3.62506 14.5,2.5C 14.5595,7.04468 12.5595,10.378 8.5,12.5C 4.4405,10.378 2.4405,7.04468 2.5,2.5 Z"/></g>
</svg>
