<?xml version="1.0" encoding="UTF-8"?>
<!DOCTYPE svg PUBLIC "-//W3C//DTD SVG 1.1//EN" "http://www.w3.org/Graphics/SVG/1.1/DTD/svg11.dtd">
<svg xmlns="http://www.w3.org/2000/svg" version="1.1" width="19px" height="19px" style="shape-rendering:geometricPrecision; text-rendering:geometricPrecision; image-rendering:optimizeQuality; fill-rule:evenodd; clip-rule:evenodd" xmlns:xlink="http://www.w3.org/1999/xlink">
<g><path style="opacity:0.674" fill="#000000" d="M 5.5,-0.5 C 7.16667,-0.5 8.83333,-0.5 10.5,-0.5C 15.6058,2.2204 17.2725,6.38706 15.5,12C 15.9778,13.6424 16.9778,14.8091 18.5,15.5C 18.5,16.1667 18.5,16.8333 18.5,17.5C 17.8333,17.5 17.5,17.8333 17.5,18.5C 16.8333,18.5 16.1667,18.5 15.5,18.5C 14.8091,16.9778 13.6424,15.9778 12,15.5C 6.38706,17.2725 2.2204,15.6058 -0.5,10.5C -0.5,8.83333 -0.5,7.16667 -0.5,5.5C 0.833333,2.83333 2.83333,0.833333 5.5,-0.5 Z M 5.5,2.5 C 13.8185,2.98687 15.4851,6.48687 10.5,13C 2.08777,12.8117 0.421101,9.31168 5.5,2.5 Z"/></g>
</svg>
