<?xml version="1.0" encoding="UTF-8"?>
<!DOCTYPE svg PUBLIC "-//W3C//DTD SVG 1.1//EN" "http://www.w3.org/Graphics/SVG/1.1/DTD/svg11.dtd">
<svg xmlns="http://www.w3.org/2000/svg" version="1.1" width="20px" height="20px" style="shape-rendering:geometricPrecision; text-rendering:geometricPrecision; image-rendering:optimizeQuality; fill-rule:evenodd; clip-rule:evenodd" xmlns:xlink="http://www.w3.org/1999/xlink">
<g><path style="opacity:0.961" fill="#7db550" d="M 4.5,-0.5 C 7.5,-0.5 10.5,-0.5 13.5,-0.5C 15.4752,1.13696 17.4752,2.80363 19.5,4.5C 19.5,7.5 19.5,10.5 19.5,13.5C 17.863,15.4752 16.1964,17.4752 14.5,19.5C 11.5,19.5 8.5,19.5 5.5,19.5C 3.52483,17.863 1.52483,16.1964 -0.5,14.5C -0.5,11.5 -0.5,8.5 -0.5,5.5C 1.13696,3.52483 2.80363,1.52483 4.5,-0.5 Z"/></g>
<g><path style="opacity:1" fill="#cbe1b9" d="M 11.5,11.5 C 11.5394,10.4168 11.8728,9.41683 12.5,8.5C 8.62597,6.99753 8.95931,6.33087 13.5,6.5C 13.8799,8.69798 13.2132,10.3646 11.5,11.5 Z"/></g>
<g><path style="opacity:1" fill="#cbe1b8" d="M 5.5,6.5 C 6.00821,8.84216 7.00821,11.0088 8.5,13C 7.16667,13.6667 5.83333,13.6667 4.5,13C 5.16893,10.7377 5.50226,8.57104 5.5,6.5 Z"/></g>
<g><path style="opacity:1" fill="#ddecd1" d="M 11.5,11.5 C 11.9175,12.2216 12.5842,12.7216 13.5,13C 12.1667,13.6667 10.8333,13.6667 9.5,13C 10.0442,12.2828 10.7109,11.7828 11.5,11.5 Z"/></g>
</svg>
