<?xml version="1.0" encoding="UTF-8"?>
<!DOCTYPE svg PUBLIC "-//W3C//DTD SVG 1.1//EN" "http://www.w3.org/Graphics/SVG/1.1/DTD/svg11.dtd">
<svg xmlns="http://www.w3.org/2000/svg" version="1.1" width="18px" height="17px" style="shape-rendering:geometricPrecision; text-rendering:geometricPrecision; image-rendering:optimizeQuality; fill-rule:evenodd; clip-rule:evenodd" xmlns:xlink="http://www.w3.org/1999/xlink">
<g><path style="opacity:0.789" fill="#81b2d2" d="M 7.5,-0.5 C 8.16667,-0.5 8.83333,-0.5 9.5,-0.5C 9.83333,1.5 10.1667,3.5 10.5,5.5C 12.8333,5.5 15.1667,5.5 17.5,5.5C 17.5,6.16667 17.5,6.83333 17.5,7.5C 15.6064,8.04756 13.9397,9.04756 12.5,10.5C 13.3721,12.4496 14.0388,14.4496 14.5,16.5C 13.8333,16.5 13.1667,16.5 12.5,16.5C 9.83333,12.5 7.16667,12.5 4.5,16.5C 3.83333,16.5 3.16667,16.5 2.5,16.5C 2.96124,14.4496 3.62791,12.4496 4.5,10.5C 2.81439,9.14311 1.14772,7.80978 -0.5,6.5C -0.5,6.16667 -0.5,5.83333 -0.5,5.5C 1.83333,5.5 4.16667,5.5 6.5,5.5C 6.83333,3.5 7.16667,1.5 7.5,-0.5 Z"/></g>
</svg>
