<?xml version="1.0" encoding="UTF-8"?>
<!DOCTYPE svg PUBLIC "-//W3C//DTD SVG 1.1//EN" "http://www.w3.org/Graphics/SVG/1.1/DTD/svg11.dtd">
<svg xmlns="http://www.w3.org/2000/svg" version="1.1" width="25px" height="15px" style="shape-rendering:geometricPrecision; text-rendering:geometricPrecision; image-rendering:optimizeQuality; fill-rule:evenodd; clip-rule:evenodd" xmlns:xlink="http://www.w3.org/1999/xlink">
<g><path style="opacity:0.813" fill="#81b2d2" d="M 0.5,-0.5 C 1.83333,-0.5 3.16667,-0.5 4.5,-0.5C 8.54264,9.63514 9.87597,9.63514 8.5,-0.5C 10.5,-0.5 12.5,-0.5 14.5,-0.5C 14.3145,8.15116 15.9812,8.15116 19.5,-0.5C 20.8333,-0.5 22.1667,-0.5 23.5,-0.5C 23.5,0.166667 23.8333,0.5 24.5,0.5C 24.5,0.833333 24.5,1.16667 24.5,1.5C 23.19,3.43456 21.8567,5.43456 20.5,7.5C 21.5213,9.188 22.8546,10.5213 24.5,11.5C 24.5,12.5 24.5,13.5 24.5,14.5C 22.5,14.5 20.5,14.5 18.5,14.5C 15.9749,9.80459 14.6415,9.80459 14.5,14.5C 12.5,14.5 10.5,14.5 8.5,14.5C 4.52774,11.219 1.52774,7.21898 -0.5,2.5C -0.5,1.83333 -0.5,1.16667 -0.5,0.5C 0.166667,0.5 0.5,0.166667 0.5,-0.5 Z"/></g>
</svg>
