<?xml version="1.0" encoding="UTF-8"?>
<!DOCTYPE svg PUBLIC "-//W3C//DTD SVG 1.1//EN" "http://www.w3.org/Graphics/SVG/1.1/DTD/svg11.dtd">
<svg xmlns="http://www.w3.org/2000/svg" version="1.1" width="23px" height="18px" style="shape-rendering:geometricPrecision; text-rendering:geometricPrecision; image-rendering:optimizeQuality; fill-rule:evenodd; clip-rule:evenodd" xmlns:xlink="http://www.w3.org/1999/xlink">
<g><path style="opacity:0.941" fill="#83b3d2" d="M 0.5,-0.5 C 7.16667,-0.5 13.8333,-0.5 20.5,-0.5C 20.8333,0.5 21.5,1.16667 22.5,1.5C 22.5,6.16667 22.5,10.8333 22.5,15.5C 21.5,15.8333 20.8333,16.5 20.5,17.5C 14.1667,17.5 7.83333,17.5 1.5,17.5C 1.16667,16.5 0.5,15.8333 -0.5,15.5C -0.5,10.5 -0.5,5.5 -0.5,0.5C 0.166667,0.5 0.5,0.166667 0.5,-0.5 Z M 7.5,5.5 C 13.7891,7.06684 13.9558,9.06684 8,11.5C 7.50454,9.5273 7.33788,7.5273 7.5,5.5 Z"/></g>
</svg>
